<svg height="511pt" viewBox="-51 0 511 511.98996" width="511pt" xmlns="http://www.w3.org/2000/svg"><path d="m350.363281 68.257812v196.265626h-34.136719c-16.941406.050781-33.503906-5.003907-47.527343-14.507813l-29.355469-212.308594c13.746094-23.097656 41.234375-34.164062 67.152344-27.035156 25.914062 7.132813 43.871094 30.703125 43.867187 57.585937zm0 0" fill="#7facfa"/><path d="m324.761719 68.257812v196.265626h-15.582031c-15.582032-.015626-30.738282-5.109376-43.171876-14.507813l-26.664062-212.308594c7.722656-14.996093 21.996094-25.53125 38.601562-28.5 11.960938 1.800781 22.910157 7.75 30.925782 16.808594 10.371094 11.613281 16.039062 26.671875 15.890625 42.242187zm0 0" fill="#a4c2f7"/><path d="m290.542969 151.285156c5.886719-4.691406 25.683593-18.089844 25.683593 18.773438 0 35.074218-22.355468 41.730468-30.890624 43.007812h-160.082032c-8.535156-1.277344-30.890625-7.933594-30.890625-43.007812 0-36.863282 19.796875-23.464844 25.683594-18.773438zm0 0" fill="#cad9fc"/><path d="m401.5625 406.261719c.011719 38.207031-26.960938 71.109375-64.425781 78.59375-5.171875 1.03125-10.429688 1.546875-15.703125 1.535156h-232.277344c-5.273438.011719-10.53125-.503906-15.703125-1.535156-39.109375-7.828125-66.511719-43.21875-64.304687-83.042969 2.207031-39.824219 33.359374-71.96875 73.097656-75.421875l68.605468-5.972656h108.886719l68.605469 5.972656c41.421875 3.621094 73.207031 38.292969 73.21875 79.871094zm0 0" fill="#cad9fc"/><path d="m375.960938 406.261719c.011718 38.207031-26.957032 71.109375-64.425782 78.59375-5.167968 1.03125-10.429687 1.546875-15.703125 1.535156h-206.675781c-5.273438.011719-10.53125-.503906-15.703125-1.535156-39.109375-7.828125-66.511719-43.21875-64.304687-83.042969 2.207031-39.824219 33.359374-71.96875 73.097656-75.421875l68.605468-5.972656h83.285157l68.609375 5.972656c41.417968 3.621094 73.203125 38.292969 73.214844 79.871094zm0 0" fill="#e8edfc"/><path d="m350.363281 426.65625v25.601562c-.085937 12.15625-4.816406 23.816407-13.226562 32.597657-5.171875 1.03125-10.429688 1.546875-15.703125 1.535156h-232.277344c-5.273438.011719-10.53125-.503906-15.703125-1.535156-8.410156-8.78125-13.140625-20.441407-13.226563-32.597657v-25.601562c.03125-9.414062 7.652344-17.039062 17.070313-17.066406h256c9.414063.027344 17.039063 7.652344 17.066406 17.066406zm0 0" fill="#cad9fc"/><path d="m333.296875 392.523438v59.734374c0 28.277344-22.925781 51.199219-51.203125 51.199219h-153.597656c-28.277344 0-51.199219-22.921875-51.199219-51.199219v-59.734374" fill="#e8edfc"/><path d="m265.027344 503.457031h-8.53125c-28.277344 0-51.199219-22.921875-51.199219-51.199219 0 28.277344-22.925781 51.199219-51.203125 51.199219zm0 0" fill="#a4c2f7"/><path d="m265.027344 332.789062c-25.597656 59.734376-59.730469 76.800782-59.730469 76.800782-4.808594-2.382813-9.429687-5.121094-13.824219-8.191406-23.339844-16.328126-39.71875-40.804688-45.910156-68.609376 2.007812-4.015624 3.773438-8.144531 5.289062-12.371093 5.425782-14.953125 8.980469-30.515625 10.582032-46.335938l62.039062-.085937 25.597656-.085938c1.683594 15.871094 5.265626 31.484375 10.667969 46.507813 1.515625 4.226562 3.28125 8.355469 5.289063 12.371093zm0 0" fill="#a4c2f7"/><path d="m239.429688 332.789062c-10.375 26.320313-26.804688 49.824219-47.957032 68.609376-23.339844-16.328126-39.71875-40.804688-45.910156-68.609376 2.007812-4.015624 3.773438-8.144531 5.289062-12.371093 5.425782-14.953125 8.980469-30.515625 10.582032-46.335938l62.039062-.085937c1.683594 15.84375 5.265625 31.429687 10.664063 46.421875 1.515625 4.226562 3.28125 8.355469 5.292969 12.371093zm0 0" fill="#cad9fc"/><path d="m290.628906 76.789062c0 2.132813 0 72.449219-.085937 74.496094.269531 20.667969-1.933594 41.296875-6.570313 61.441406-2.269531 9.015626-5.414062 17.789063-9.386718 26.195313-12.117188 25.601563-33.195313 51.203125-69.289063 51.203125-4.265625-.011719-8.515625-.382812-12.714844-1.109375h-.171875c-28.5-5.292969-45.996094-27.5625-56.578125-50.09375-3.945312-8.40625-7.058593-17.183594-9.300781-26.195313-4.59375-20.148437-6.769531-40.777343-6.484375-61.441406-.085937-2.046875-.085937-72.363281-.085937-74.496094zm0 0" fill="#cad9fc"/><path d="m265.027344 76.789062c0 2.132813 0 72.449219-.085938 74.496094.273438 20.667969-1.933594 41.296875-6.570312 61.441406-2.269532 9.015626-5.414063 17.789063-9.386719 26.195313-10.578125 22.359375-28.074219 44.800781-56.402344 50.09375h-.171875c-28.5-5.292969-45.996094-27.5625-56.578125-50.09375-3.945312-8.40625-7.058593-17.183594-9.300781-26.195313-4.59375-20.148437-6.769531-40.777343-6.484375-61.441406-.085937-2.046875-.085937-72.363281-.085937-74.496094zm0 0" fill="#e8edfc"/><path d="m307.695312 145.054688-17.066406 8.535156c-2.882812-.449219-5.730468-1.078125-8.535156-1.878906-17.40625-4.4375-57.171875-18.601563-76.796875-57.855469-19.628906 39.253906-59.394531 53.417969-76.800781 57.855469-2.804688.800781-5.652344 1.429687-8.535156 1.878906l-17.066407-8.535156s-17.066406-110.929688 102.402344-110.929688c119.464844 0 102.398437 110.929688 102.398437 110.929688zm0 0" fill="#7facfa"/><path d="m282.09375 151.710938c-17.40625-4.4375-57.171875-18.601563-76.796875-57.855469-19.628906 39.253906-59.394531 53.417969-76.800781 57.855469 0-36.351563 7.847656-117.585938 76.800781-117.585938 68.949219 0 76.796875 81.234375 76.796875 117.585938zm0 0" fill="#a4c2f7"/><path d="m73.453125 484.855469c5.171875 1.03125 10.429687 1.546875 15.703125 1.535156h1.253906c9.679688 10.859375 23.535156 17.066406 38.085938 17.066406h25.597656c-14.546875 0-28.402344-6.207031-38.082031-17.066406h-1.253907c-5.273437.011719-10.535156-.503906-15.703124-1.535156-39.109376-7.828125-66.515626-43.21875-64.304688-83.042969 2.207031-39.824219 33.359375-71.96875 73.09375-75.421875l68.609375-5.972656c5.421875-14.953125 8.976563-30.515625 10.582031-46.335938h.203125c-11.007812-9.75-19.804687-21.734375-25.804687-35.160156-3.890625-8.300781-6.972656-16.960937-9.199219-25.855469h-1.382813c-8.53125-1.277344-30.890624-7.933594-30.890624-43.007812 0-16.921875 4.183593-23.191406 9.265624-24.636719l-.730468-.367187s-15.75-102.726563 89.597656-110.429688c-4.09375-.300781-8.324219-.5-12.796875-.5-119.46875 0-102.402344 110.929688-102.402344 110.929688l.734375.367187c-5.085937 1.445313-9.265625 7.714844-9.265625 24.636719 0 35.074218 22.355469 41.730468 30.890625 43.007812h1.378906c2.230469 8.894532 5.308594 17.554688 9.199219 25.855469 6 13.425781 14.800781 25.410156 25.804688 35.160156h-.203125c-1.601563 15.820313-5.15625 31.382813-10.582032 46.335938l-68.605468 5.972656c-39.734375 3.457031-70.882813 35.597656-73.09375 75.421875-2.207032 39.820312 25.195312 75.210938 64.300781 83.042969zm0 0" fill="#fff"/><path d="m205.296875 298.65625c-33.238281 0-59.929687-19.398438-77.183594-56.105469-4.179687-8.894531-7.480469-18.175781-9.851562-27.714843-4.785157-20.804688-7.050781-42.109376-6.75-63.453126-.078125-1.910156-.085938-4.070312-.085938-6.328124 0-4.710938 3.820313-8.53125 8.535157-8.53125 4.710937 0 8.53125 3.820312 8.53125 8.53125 0 2.015624 0 3.953124.078124 5.886718-.3125 20.070313 1.777344 40.105469 6.226563 59.683594 2.101563 8.476562 5.027344 16.730469 8.738281 24.640625 14.464844 30.75 35.234375 46.324219 61.761719 46.324219 26.3125 0 47.03125-15.582032 61.578125-46.316406 3.738281-7.910157 6.695312-16.167969 8.828125-24.65625 4.484375-19.480469 6.605469-39.4375 6.308594-59.425782.085937-2.183594.085937-4.121094.085937-6.136718 0-4.710938 3.820313-8.53125 8.53125-8.53125 4.714844 0 8.535156 3.820312 8.535156 8.53125 0 2.257812-.003906 4.417968-.09375 6.574218.289063 21.265625-2.003906 42.492188-6.824218 63.207032-2.402344 9.550781-5.734375 18.839843-9.945313 27.742187-17.367187 36.6875-43.992187 56.078125-77.003906 56.078125zm0 0" fill="#428dff"/><path d="m125.265625 221.601562c-.429687 0-.855469-.03125-1.28125-.097656-8.953125-1.34375-38.15625-9.035156-38.15625-51.445312 0-6.367188 0-25.738282 12.75-31.878906 7.53125-3.625 17.035156-1.335938 26.785156 6.429687 2.382813 1.898437 3.574219 4.925781 3.121094 7.941406s-2.480469 5.558594-5.316406 6.675781c-2.839844 1.113282-6.054688.632813-8.441407-1.265624-4.734374-3.777344-8.011718-4.609376-8.78125-4.390626.023438 0-3.050781 2.65625-3.050781 16.488282 0 26.988281 14.804688 33.242187 23.628907 34.570312 4.414062.667969 7.566406 4.621094 7.238281 9.070313-.332031 4.449219-4.035157 7.894531-8.496094 7.902343zm0 0" fill="#428dff"/><path d="m285.324219 221.601562c-4.460938-.007812-8.164063-3.453124-8.496094-7.902343-.328125-4.449219 2.824219-8.402344 7.238281-9.070313 8.824219-1.328125 23.628906-7.582031 23.628906-34.570312 0-13.855469-3.082031-16.496094-3.113281-16.515625-.71875-.242188-3.992187.644531-8.71875 4.417969-2.386719 1.898437-5.601562 2.378906-8.441406 1.265624-2.835937-1.117187-4.863281-3.660156-5.316406-6.675781s.738281-6.042969 3.121093-7.941406c9.757813-7.765625 19.273438-10.058594 26.785157-6.429687 12.75 6.144531 12.75 25.515624 12.75 31.878906 0 42.410156-29.203125 50.101562-38.15625 51.445312-.421875.066406-.851563.097656-1.28125.097656zm0 0" fill="#428dff"/><path d="m82.980469 334.890625c-34.292969 2.992187-61.605469 29.945313-65.054688 64.195313-.230469 2.382812-.339843 4.777343-.363281 7.175781h-17.066406c.023437-2.960938.160156-5.921875.449218-8.875 4.261719-42.414063 38.09375-75.800781 80.5625-79.5zm0 0" fill="#fff"/><g fill="#428dff"><path d="m42.6875 340.972656c2.5625 3.632813 7.402344 4.84375 11.375 2.847656 8.902344-4.988281 18.753906-8.03125 28.917969-8.929687l-1.472657-17.003906c-12.585937 1.113281-24.796874 4.882812-35.820312 11.0625-2.109375 1.089843-3.644531 3.03125-4.21875 5.332031-.578125 2.300781-.132812 4.742188 1.21875 6.691406zm0 0"/><path d="m.496094 406.261719h17.066406c.027344-2.398438.132812-4.792969.363281-7.175781.261719-2.527344.652344-5.042969 1.171875-7.53125.6875-4.390626-1.925781-8.628907-6.160156-9.988282-2.269531-.703125-4.726562-.390625-6.746094.855469-2.023437 1.242187-3.40625 3.300781-3.796875 5.640625-.644531 3.082031-1.128906 6.191406-1.453125 9.324219-.285156 2.953125-.421875 5.914062-.445312 8.875zm0 0"/><path d="m31.429688 363.921875c1.171874-1.710937 1.695312-3.789063 1.480468-5.851563l-.335937-1.558593c-.160157-.546875-.382813-1.074219-.667969-1.570313-.207031-.503906-.484375-.972656-.820312-1.398437-.355469-.449219-.738282-.875-1.148438-1.273438-2.597656-2.480469-6.558594-2.835937-9.558594-.863281-3.199218 1.921875-4.925781 5.582031-4.378906 9.277344.257812 1.117187.746094 2.167968 1.433594 3.085937.648437.910157 1.480468 1.671875 2.441406 2.242188 1.953125 1.078125 4.214844 1.457031 6.410156 1.078125 2.039063-.402344 3.867188-1.527344 5.144532-3.167969zm0 0"/><path d="m82.238281 334.921875c-4.5625-.007813-8.3125-3.605469-8.507812-8.164063-.195313-4.558593 3.226562-8.464843 7.773437-8.867187l68.609375-5.972656c2.257813-.226563 4.515625.46875 6.253907 1.929687 1.738281 1.460938 2.816406 3.5625 2.984374 5.828125.410157 4.695313-3.0625 8.832031-7.757812 9.242188l-68.605469 5.972656c-.257812.023437-.507812.03125-.75.03125zm0 0"/><path d="m90.4375 494.921875h-1.28125c-48.941406-.054687-88.605469-39.71875-88.660156-88.660156 0-4.710938 3.820312-8.53125 8.53125-8.53125 4.714844 0 8.535156 3.820312 8.535156 8.53125.046875 39.519531 32.074219 71.546875 71.59375 71.59375h1.28125c4.710938 0 8.53125 3.820312 8.53125 8.535156 0 4.710937-3.820312 8.53125-8.53125 8.53125zm0 0"/><path d="m321.433594 494.921875h-1.28125c-4.710938 0-8.53125-3.820313-8.53125-8.53125 0-4.714844 3.820312-8.535156 8.53125-8.535156h1.28125c38.347656-.011719 69.878906-30.222657 71.527344-68.535157 1.652343-38.308593-27.167969-71.121093-65.371094-74.429687l-68.59375-5.972656c-4.636719-.476563-8.035156-4.585938-7.628906-9.230469s4.460937-8.105469 9.113281-7.769531l68.605469 5.972656c47.308593 4.105469 82.984374 44.742187 80.933593 92.179687-2.050781 47.441407-41.101562 84.847657-88.585937 84.851563zm0 0"/><path d="m282.09375 511.988281h-153.597656c-32.976563-.035156-59.699219-26.757812-59.734375-59.730469v-42.667968c0-4.710938 3.820312-8.535156 8.535156-8.535156 4.710937 0 8.53125 3.824218 8.53125 8.535156v42.667968c.027344 23.550782 19.113281 42.636719 42.667969 42.664063h153.597656c23.554688-.027344 42.640625-19.113281 42.667969-42.664063v-42.667968c0-4.710938 3.820312-8.535156 8.535156-8.535156 4.710937 0 8.53125 3.824218 8.53125 8.535156v42.667968c-.035156 32.972657-26.757813 59.695313-59.734375 59.730469zm0 0"/><path d="m154.09375 511.988281h-8.53125c-4.714844 0-8.535156-3.820312-8.535156-8.53125 0-4.714843 3.820312-8.535156 8.535156-8.535156h8.53125c23.554688-.027344 42.640625-19.113281 42.667969-42.664063v-8.535156c0-4.710937 3.820312-8.53125 8.535156-8.53125 4.710937 0 8.53125 3.820313 8.53125 8.53125v8.535156c-.035156 32.972657-26.757813 59.695313-59.734375 59.730469zm0 0"/><path d="m265.027344 511.988281h-8.53125c-32.976563-.035156-59.699219-26.757812-59.734375-59.730469v-8.535156c0-4.710937 3.820312-8.53125 8.535156-8.53125 4.710937 0 8.53125 3.820313 8.53125 8.53125v8.535156c.027344 23.550782 19.113281 42.636719 42.667969 42.664063h8.53125c4.714844 0 8.535156 3.820313 8.535156 8.535156 0 4.710938-3.820312 8.53125-8.535156 8.53125zm0 0"/><path d="m205.296875 418.125c-1.328125 0-2.632813-.308594-3.820313-.902344-32.90625-16.511718-56.558593-47.042968-64.332031-83.027344-.300781-1.808593-.011719-3.660156.816407-5.292968 1.859374-3.707032 3.488281-7.527344 4.882812-11.433594 5.171875-14.304688 8.566406-29.191406 10.105469-44.320312.332031-3.03125 2.253906-5.65625 5.046875-6.882813 2.789062-1.230469 6.023437-.875 8.484375.929687 2.457031 1.800782 3.765625 4.78125 3.433593 7.808594-1.691406 16.539063-5.414062 32.804688-11.082031 48.433594-1.449219 3.953125-2.859375 7.359375-4.320312 10.472656 7.046875 27.960938 25.296875 51.785156 50.460937 65.867188 8.664063-5.890625 31.777344-24.617188 50.664063-66.816406-1.308594-2.863282-2.582031-5.996094-3.910157-9.609376-5.660156-15.640624-9.398437-31.914062-11.132812-48.457031-.40625-3.054687.867188-6.09375 3.328125-7.945312 2.464844-1.851563 5.734375-2.234375 8.558594-.996094 2.820312 1.238281 4.757812 3.898437 5.0625 6.964844 1.582031 15.183593 4.996093 30.121093 10.175781 44.480469 1.402344 3.929687 3.042969 7.773437 4.910156 11.503906 1.152344 2.257812 1.242188 4.914062.242188 7.246094-26.527344 61.890624-62.25 80.316406-63.757813 81.070312-1.1875.59375-2.492187.902344-3.816406.90625zm0 0"/><path d="m307.707031 153.582031c-2.488281.003907-4.855469-1.078125-6.476562-2.964843-1.625-1.882813-2.34375-4.382813-1.96875-6.84375.066406-.4375 6.261719-43.984376-19.015625-73.332032-15.875-18.4375-41.09375-27.785156-74.949219-27.785156-33.859375 0-59.078125 9.347656-74.953125 27.785156-25.273438 29.347656-19.078125 72.894532-19.011719 73.332032.714844 4.660156-2.484375 9.011718-7.144531 9.726562-4.660156.710938-9.011719-2.488281-9.726562-7.148438-.320313-2.085937-7.515626-51.53125 22.851562-86.933593 19.257812-22.445313 48.863281-33.828125 87.984375-33.828125s68.722656 11.382812 87.976563 33.828125c30.367187 35.402343 23.171874 84.847656 22.851562 86.933593-.640625 4.15625-4.214844 7.222657-8.417969 7.230469zm0 0"/><path d="m119.960938 153.589844c-4.710938.003906-8.539063-3.808594-8.542969-8.523438-.003907-4.710937 3.808593-8.539062 8.523437-8.542968 2.230469-.007813 54.867188-.769532 77.71875-46.484376 1.367188-2.726562 4.082032-4.519531 7.125-4.703124 3.042969-.179688 5.953125 1.273437 7.632813 3.820312 1.679687 2.542969 1.875 5.789062.511719 8.515625-27.644532 55.28125-90.3125 55.917969-92.96875 55.917969zm0 0"/><path d="m290.628906 153.589844c-2.65625 0-65.324218-.636719-92.96875-55.917969-2.105468-4.214844-.398437-9.339844 3.816406-11.449219 4.21875-2.105468 9.34375-.398437 11.453126 3.816406 22.972656 45.949219 77.152343 46.484376 77.699218 46.484376 4.710938 0 8.53125 3.820312 8.53125 8.53125 0 4.714843-3.820312 8.535156-8.53125 8.535156zm0 0"/><path d="m350.363281 273.054688h-34.136719c-18.652343.058593-36.886718-5.511719-52.324218-15.980469-3.898438-2.648438-4.910156-7.957031-2.261719-11.855469s7.957031-4.910156 11.855469-2.261719c12.609375 8.542969 27.5 13.085938 42.730468 13.03125h25.601563v-187.730469c.011719-23.042968-15.378906-43.246093-37.589844-49.363281-22.214843-6.113281-45.777343 3.375-57.554687 23.175781-2.4375 3.988282-7.628906 5.273438-11.644532 2.882813-4.019531-2.390625-5.363281-7.566406-3.023437-11.609375 15.710937-26.398438 47.125-39.042969 76.742187-30.890625 29.621094 8.148437 50.140626 35.085937 50.136719 65.804687v196.265626c0 4.710937-3.820312 8.53125-8.53125 8.53125zm0 0"/></g></svg>